<mxfile host="app.diagrams.net" agent="Mozilla/5.0 (Windows NT 10.0; Win64; x64) AppleWebKit/537.36 (KHTML, like Gecko) Chrome/130.0.0.0 Safari/537.36" version="24.8.6">
  <diagram name="Page-1" id="wNfI2YH9lYhaqxqyqGj0">
    <mxGraphModel dx="1509" dy="785" grid="1" gridSize="10" guides="1" tooltips="1" connect="1" arrows="1" fold="1" page="1" pageScale="1" pageWidth="827" pageHeight="1169" math="0" shadow="0">
      <root>
        <mxCell id="0" />
        <mxCell id="1" parent="0" />
        <mxCell id="h-CnO1cm4ilRdLrBRiII-2" value="" style="rounded=0;whiteSpace=wrap;html=1;fillColor=#dae8fc;strokeColor=#6c8ebf;" vertex="1" parent="1">
          <mxGeometry x="540" y="220" width="1250" height="1040" as="geometry" />
        </mxCell>
        <mxCell id="h-CnO1cm4ilRdLrBRiII-3" value="&lt;b&gt;Azure Bookstore Cluster&lt;/b&gt;" style="text;html=1;align=center;verticalAlign=middle;whiteSpace=wrap;rounded=0;" vertex="1" parent="1">
          <mxGeometry x="980" y="170" width="200" height="30" as="geometry" />
        </mxCell>
        <mxCell id="h-CnO1cm4ilRdLrBRiII-17" style="edgeStyle=orthogonalEdgeStyle;rounded=0;orthogonalLoop=1;jettySize=auto;html=1;entryX=0;entryY=0.5;entryDx=0;entryDy=0;" edge="1" parent="1" source="h-CnO1cm4ilRdLrBRiII-4" target="h-CnO1cm4ilRdLrBRiII-16">
          <mxGeometry relative="1" as="geometry" />
        </mxCell>
        <mxCell id="h-CnO1cm4ilRdLrBRiII-18" value="&lt;b&gt;TryExecutePurchase&lt;/b&gt;()" style="edgeLabel;html=1;align=center;verticalAlign=middle;resizable=0;points=[];" vertex="1" connectable="0" parent="h-CnO1cm4ilRdLrBRiII-17">
          <mxGeometry x="-0.1911" y="2" relative="1" as="geometry">
            <mxPoint x="24" y="2" as="offset" />
          </mxGeometry>
        </mxCell>
        <mxCell id="h-CnO1cm4ilRdLrBRiII-22" style="edgeStyle=orthogonalEdgeStyle;rounded=0;orthogonalLoop=1;jettySize=auto;html=1;entryX=0;entryY=0.25;entryDx=0;entryDy=0;" edge="1" parent="1" source="h-CnO1cm4ilRdLrBRiII-4" target="h-CnO1cm4ilRdLrBRiII-11">
          <mxGeometry relative="1" as="geometry">
            <Array as="points">
              <mxPoint x="670" y="640" />
              <mxPoint x="670" y="299" />
            </Array>
          </mxGeometry>
        </mxCell>
        <mxCell id="h-CnO1cm4ilRdLrBRiII-23" value="&lt;b&gt;GetAllTitles()&lt;/b&gt;" style="edgeLabel;html=1;align=center;verticalAlign=middle;resizable=0;points=[];" vertex="1" connectable="0" parent="h-CnO1cm4ilRdLrBRiII-22">
          <mxGeometry x="0.2597" y="-4" relative="1" as="geometry">
            <mxPoint x="-129" y="-3" as="offset" />
          </mxGeometry>
        </mxCell>
        <mxCell id="h-CnO1cm4ilRdLrBRiII-4" value="&lt;b&gt;BookstoreAPI&lt;/b&gt;" style="whiteSpace=wrap;html=1;aspect=fixed;fillColor=#d5e8d4;strokeColor=#82b366;" vertex="1" parent="1">
          <mxGeometry x="470" y="620" width="155" height="155" as="geometry" />
        </mxCell>
        <mxCell id="h-CnO1cm4ilRdLrBRiII-6" value="&lt;b&gt;BookstoreDesktopClient&lt;/b&gt;&lt;div&gt;&lt;br&gt;&lt;/div&gt;" style="whiteSpace=wrap;html=1;aspect=fixed;fillColor=#d5e8d4;strokeColor=#82b366;" vertex="1" parent="1">
          <mxGeometry x="140" y="620" width="155" height="155" as="geometry" />
        </mxCell>
        <mxCell id="h-CnO1cm4ilRdLrBRiII-9" value="" style="endArrow=classic;startArrow=classic;html=1;rounded=0;entryX=0;entryY=0.5;entryDx=0;entryDy=0;exitX=1;exitY=0.5;exitDx=0;exitDy=0;" edge="1" parent="1" source="h-CnO1cm4ilRdLrBRiII-6" target="h-CnO1cm4ilRdLrBRiII-4">
          <mxGeometry width="50" height="50" relative="1" as="geometry">
            <mxPoint x="360" y="730" as="sourcePoint" />
            <mxPoint x="410" y="680" as="targetPoint" />
          </mxGeometry>
        </mxCell>
        <mxCell id="h-CnO1cm4ilRdLrBRiII-10" value="&lt;b&gt;HTTP Request/Response&lt;/b&gt;" style="text;html=1;align=center;verticalAlign=middle;resizable=0;points=[];autosize=1;strokeColor=none;fillColor=none;" vertex="1" parent="1">
          <mxGeometry x="300" y="660" width="170" height="30" as="geometry" />
        </mxCell>
        <mxCell id="h-CnO1cm4ilRdLrBRiII-11" value="&lt;b&gt;BookstoreService&lt;/b&gt;" style="whiteSpace=wrap;html=1;aspect=fixed;fillColor=#d5e8d4;strokeColor=#82b366;" vertex="1" parent="1">
          <mxGeometry x="1420" y="260" width="155" height="155" as="geometry" />
        </mxCell>
        <mxCell id="h-CnO1cm4ilRdLrBRiII-24" style="edgeStyle=orthogonalEdgeStyle;rounded=0;orthogonalLoop=1;jettySize=auto;html=1;entryX=0;entryY=0.5;entryDx=0;entryDy=0;exitX=0.5;exitY=0;exitDx=0;exitDy=0;" edge="1" parent="1" source="h-CnO1cm4ilRdLrBRiII-16" target="h-CnO1cm4ilRdLrBRiII-11">
          <mxGeometry relative="1" as="geometry" />
        </mxCell>
        <mxCell id="h-CnO1cm4ilRdLrBRiII-25" value="&lt;b&gt;CheckTitleExists&lt;/b&gt;" style="edgeLabel;html=1;align=center;verticalAlign=middle;resizable=0;points=[];" vertex="1" connectable="0" parent="h-CnO1cm4ilRdLrBRiII-24">
          <mxGeometry x="0.1953" relative="1" as="geometry">
            <mxPoint x="117" as="offset" />
          </mxGeometry>
        </mxCell>
        <mxCell id="h-CnO1cm4ilRdLrBRiII-26" style="edgeStyle=orthogonalEdgeStyle;rounded=0;orthogonalLoop=1;jettySize=auto;html=1;entryX=-0.013;entryY=0.71;entryDx=0;entryDy=0;exitX=0.5;exitY=1;exitDx=0;exitDy=0;entryPerimeter=0;fontStyle=0" edge="1" parent="1" source="h-CnO1cm4ilRdLrBRiII-16" target="h-CnO1cm4ilRdLrBRiII-21">
          <mxGeometry relative="1" as="geometry">
            <Array as="points">
              <mxPoint x="928" y="1090" />
            </Array>
          </mxGeometry>
        </mxCell>
        <mxCell id="h-CnO1cm4ilRdLrBRiII-27" value="&lt;b&gt;CheckUsernameExists()&lt;/b&gt;" style="edgeLabel;html=1;align=center;verticalAlign=middle;resizable=0;points=[];" vertex="1" connectable="0" parent="h-CnO1cm4ilRdLrBRiII-26">
          <mxGeometry x="0.3723" y="-2" relative="1" as="geometry">
            <mxPoint x="59" as="offset" />
          </mxGeometry>
        </mxCell>
        <mxCell id="h-CnO1cm4ilRdLrBRiII-28" style="edgeStyle=orthogonalEdgeStyle;rounded=0;orthogonalLoop=1;jettySize=auto;html=1;entryX=0;entryY=0.5;entryDx=0;entryDy=0;" edge="1" parent="1" source="h-CnO1cm4ilRdLrBRiII-16" target="h-CnO1cm4ilRdLrBRiII-20">
          <mxGeometry relative="1" as="geometry" />
        </mxCell>
        <mxCell id="h-CnO1cm4ilRdLrBRiII-29" value="&lt;b&gt;ExecuteCoordinatedPurchase&lt;/b&gt;()" style="edgeLabel;html=1;align=center;verticalAlign=middle;resizable=0;points=[];" vertex="1" connectable="0" parent="h-CnO1cm4ilRdLrBRiII-28">
          <mxGeometry x="-0.2683" y="1" relative="1" as="geometry">
            <mxPoint x="20" y="1" as="offset" />
          </mxGeometry>
        </mxCell>
        <mxCell id="h-CnO1cm4ilRdLrBRiII-16" value="&lt;b&gt;ValidationService&lt;/b&gt;" style="whiteSpace=wrap;html=1;aspect=fixed;fillColor=#d5e8d4;strokeColor=#82b366;" vertex="1" parent="1">
          <mxGeometry x="850" y="620" width="155" height="155" as="geometry" />
        </mxCell>
        <mxCell id="h-CnO1cm4ilRdLrBRiII-30" style="edgeStyle=orthogonalEdgeStyle;rounded=0;orthogonalLoop=1;jettySize=auto;html=1;exitX=0.25;exitY=0;exitDx=0;exitDy=0;entryX=0.25;entryY=1;entryDx=0;entryDy=0;" edge="1" parent="1" source="h-CnO1cm4ilRdLrBRiII-20" target="h-CnO1cm4ilRdLrBRiII-11">
          <mxGeometry relative="1" as="geometry" />
        </mxCell>
        <mxCell id="h-CnO1cm4ilRdLrBRiII-39" value="&lt;b&gt;EnlistBookForPurchase()&lt;/b&gt;" style="edgeLabel;html=1;align=center;verticalAlign=middle;resizable=0;points=[];" vertex="1" connectable="0" parent="h-CnO1cm4ilRdLrBRiII-30">
          <mxGeometry x="0.161" y="-2" relative="1" as="geometry">
            <mxPoint x="-51" y="-31" as="offset" />
          </mxGeometry>
        </mxCell>
        <mxCell id="h-CnO1cm4ilRdLrBRiII-31" style="edgeStyle=orthogonalEdgeStyle;rounded=0;orthogonalLoop=1;jettySize=auto;html=1;exitX=0.5;exitY=0;exitDx=0;exitDy=0;entryX=0.5;entryY=1;entryDx=0;entryDy=0;" edge="1" parent="1" source="h-CnO1cm4ilRdLrBRiII-20" target="h-CnO1cm4ilRdLrBRiII-11">
          <mxGeometry relative="1" as="geometry" />
        </mxCell>
        <mxCell id="h-CnO1cm4ilRdLrBRiII-40" value="&lt;b&gt;ConfirmEnlistedPurchase()&lt;/b&gt;" style="edgeLabel;html=1;align=center;verticalAlign=middle;resizable=0;points=[];" vertex="1" connectable="0" parent="h-CnO1cm4ilRdLrBRiII-31">
          <mxGeometry x="-0.0341" y="1" relative="1" as="geometry">
            <mxPoint x="-56" as="offset" />
          </mxGeometry>
        </mxCell>
        <mxCell id="h-CnO1cm4ilRdLrBRiII-32" style="edgeStyle=orthogonalEdgeStyle;rounded=0;orthogonalLoop=1;jettySize=auto;html=1;exitX=0.75;exitY=0;exitDx=0;exitDy=0;entryX=0.75;entryY=1;entryDx=0;entryDy=0;" edge="1" parent="1" source="h-CnO1cm4ilRdLrBRiII-20" target="h-CnO1cm4ilRdLrBRiII-11">
          <mxGeometry relative="1" as="geometry" />
        </mxCell>
        <mxCell id="h-CnO1cm4ilRdLrBRiII-43" value="&lt;b&gt;RevokeEnlistedMoneyTransfer&lt;/b&gt;()" style="edgeLabel;html=1;align=center;verticalAlign=middle;resizable=0;points=[];" vertex="1" connectable="0" parent="h-CnO1cm4ilRdLrBRiII-32">
          <mxGeometry x="-0.3756" relative="1" as="geometry">
            <mxPoint x="-56" y="4" as="offset" />
          </mxGeometry>
        </mxCell>
        <mxCell id="h-CnO1cm4ilRdLrBRiII-33" style="edgeStyle=orthogonalEdgeStyle;rounded=0;orthogonalLoop=1;jettySize=auto;html=1;exitX=0.25;exitY=1;exitDx=0;exitDy=0;entryX=0.25;entryY=0;entryDx=0;entryDy=0;" edge="1" parent="1" source="h-CnO1cm4ilRdLrBRiII-20" target="h-CnO1cm4ilRdLrBRiII-21">
          <mxGeometry relative="1" as="geometry" />
        </mxCell>
        <mxCell id="h-CnO1cm4ilRdLrBRiII-38" value="&lt;b&gt;EnlistMoneyTransfer&lt;/b&gt;()" style="edgeLabel;html=1;align=center;verticalAlign=middle;resizable=0;points=[];" vertex="1" connectable="0" parent="h-CnO1cm4ilRdLrBRiII-33">
          <mxGeometry x="-0.1024" y="2" relative="1" as="geometry">
            <mxPoint x="-41" y="-37" as="offset" />
          </mxGeometry>
        </mxCell>
        <mxCell id="h-CnO1cm4ilRdLrBRiII-34" style="edgeStyle=orthogonalEdgeStyle;rounded=0;orthogonalLoop=1;jettySize=auto;html=1;entryX=0.5;entryY=0;entryDx=0;entryDy=0;" edge="1" parent="1" source="h-CnO1cm4ilRdLrBRiII-20" target="h-CnO1cm4ilRdLrBRiII-21">
          <mxGeometry relative="1" as="geometry" />
        </mxCell>
        <mxCell id="h-CnO1cm4ilRdLrBRiII-41" value="&lt;b&gt;ConfirmEnlistedMoneyTransfer()&lt;/b&gt;" style="edgeLabel;html=1;align=center;verticalAlign=middle;resizable=0;points=[];" vertex="1" connectable="0" parent="h-CnO1cm4ilRdLrBRiII-34">
          <mxGeometry x="0.0049" y="1" relative="1" as="geometry">
            <mxPoint x="-68" as="offset" />
          </mxGeometry>
        </mxCell>
        <mxCell id="h-CnO1cm4ilRdLrBRiII-35" style="edgeStyle=orthogonalEdgeStyle;rounded=0;orthogonalLoop=1;jettySize=auto;html=1;exitX=0.75;exitY=1;exitDx=0;exitDy=0;entryX=0.75;entryY=0;entryDx=0;entryDy=0;" edge="1" parent="1" source="h-CnO1cm4ilRdLrBRiII-20" target="h-CnO1cm4ilRdLrBRiII-21">
          <mxGeometry relative="1" as="geometry" />
        </mxCell>
        <mxCell id="h-CnO1cm4ilRdLrBRiII-44" value="&lt;b&gt;RevokeEnlistedPurchase()&lt;/b&gt;" style="edgeLabel;html=1;align=center;verticalAlign=middle;resizable=0;points=[];" vertex="1" connectable="0" parent="h-CnO1cm4ilRdLrBRiII-35">
          <mxGeometry x="0.4732" y="-1" relative="1" as="geometry">
            <mxPoint x="-45" y="-16" as="offset" />
          </mxGeometry>
        </mxCell>
        <mxCell id="h-CnO1cm4ilRdLrBRiII-20" value="&lt;b&gt;TransactionCoordinating&lt;br&gt;Service&lt;/b&gt;" style="whiteSpace=wrap;html=1;aspect=fixed;fillColor=#d5e8d4;strokeColor=#82b366;" vertex="1" parent="1">
          <mxGeometry x="1420" y="620" width="155" height="155" as="geometry" />
        </mxCell>
        <mxCell id="h-CnO1cm4ilRdLrBRiII-21" value="&lt;b&gt;UsersService&lt;/b&gt;" style="whiteSpace=wrap;html=1;aspect=fixed;fillColor=#d5e8d4;strokeColor=#82b366;" vertex="1" parent="1">
          <mxGeometry x="1420" y="980" width="155" height="155" as="geometry" />
        </mxCell>
        <mxCell id="h-CnO1cm4ilRdLrBRiII-45" value="&lt;font style=&quot;font-size: 18px;&quot;&gt;&lt;b&gt;&lt;u&gt;NOTE:&lt;/u&gt;&lt;/b&gt;&lt;br&gt;&lt;br&gt;Implementation contains all service operations exposed&lt;br&gt;through single interface to avoid complexity.&lt;br&gt;&lt;br&gt;In some &#39;real&#39; use case, each service would have multiple&lt;br&gt;interfaces hosted on different endpoints.&lt;br&gt;&lt;br&gt;Mentioned should be done to prevent some services to see/use&lt;br&gt;methods of contract which it should not.&lt;br&gt;&lt;br&gt;Also it will fit in single responsibility principle.&lt;br&gt;&lt;br&gt;&lt;/font&gt;&lt;div&gt;&lt;font size=&quot;3&quot;&gt;For example, BookstoreService will have:&lt;br&gt;&amp;nbsp; &amp;nbsp; &amp;nbsp; &amp;nbsp; &amp;nbsp; &amp;nbsp;- Read only interface used by validation service and API to see state&lt;br&gt;&amp;nbsp; &amp;nbsp; &amp;nbsp; &amp;nbsp; &amp;nbsp; &amp;nbsp; of bookstore.&lt;br&gt;&lt;br&gt;&amp;nbsp; &amp;nbsp; &amp;nbsp; &amp;nbsp; &amp;nbsp; &amp;nbsp; - Separate interface used by transaction coordinator to perform purchase related operations.&lt;br&gt;&lt;br&gt;Same goes for other services.&lt;br&gt;&amp;nbsp; &amp;nbsp; &amp;nbsp; &amp;nbsp; &amp;nbsp; &amp;nbsp;&lt;/font&gt;&lt;/div&gt;" style="text;html=1;align=left;verticalAlign=middle;whiteSpace=wrap;rounded=0;" vertex="1" parent="1">
          <mxGeometry x="1840" y="220" width="830" height="500" as="geometry" />
        </mxCell>
      </root>
    </mxGraphModel>
  </diagram>
</mxfile>
